<?xml version="1.0" encoding="UTF-8"?>
<svg xmlns="http://www.w3.org/2000/svg" class="svg-icon-path-icon fill" viewBox="0 0 32 32" width="19" height="19"><path d="M16.864 2.72c0.704 0.704 1.44 1.44 2.080 2.208 0.96 1.12 1.632 2.432 2.176 3.872h-10.24c0.096-0.256 0.16-0.512 0.288-0.736 1.056-2.272 2.464-4.288 4.512-5.824 0.064-0.064 0.128-0.16 0.192-0.256h0.128c0.064 0 0.448 0.352 0.864 0.736zM5.504 23.136l2.88-1.632c0.175-0.126 0.375-0.244 0.585-0.342l0.023-0.010c0.48 1.984 0.96 3.936 1.44 5.984-1.6 0.8-3.232 1.6-4.896 2.432-0.48 0.224-0.896-0.032-0.896-0.576v-4.288c0-0.576 0.384-1.28 0.864-1.568zM26.432 29.568c-1.632-0.832-3.264-1.632-4.864-2.432 0.48-1.984 0.928-3.936 1.44-5.984 1.12 0.672 2.304 1.344 3.456 1.984 0.48 0.288 0.896 0.992 0.896 1.568v4.288c0 0.544-0.416 0.8-0.928 0.576zM16.064 9.664c1.568 0 3.168 0.032 4.768 0 0.512-0.032 0.704 0.192 0.832 0.64 0.832 2.88 0.992 5.824 0.64 8.768-0.32 2.56-0.928 5.056-1.76 7.488-0.16 0.384-0.32 0.544-0.736 0.544-1.132-0.015-2.469-0.024-3.808-0.024s-2.676 0.009-4.011 0.026l0.203-0.002c-0.352 0-0.576-0.096-0.704-0.48-1.216-3.584-2.080-7.232-1.92-11.040 0.096-1.792 0.512-3.552 0.8-5.344 0.064-0.512 0.352-0.576 0.8-0.576 1.632 0.032 3.264 0 4.896 0zM13.024 16.896c0.032 1.312 0.32 2.56 1.248 3.584 1.024 1.088 2.4 1.088 3.424 0 1.664-1.76 1.696-5.312 0.096-7.136-1.088-1.216-2.496-1.216-3.584 0-0.896 1.024-1.152 2.24-1.184 3.552zM11.808 27.936h8.352c-0.16 0.608-0.32 1.216-0.512 1.792-0.032 0.128-0.256 0.256-0.416 0.256-2.176 0.032-4.32 0.032-6.464 0-0.16 0-0.384-0.192-0.448-0.32-0.192-0.544-0.32-1.088-0.512-1.728z"></path></svg>